<svg id="Capa_1" enable-background="new 0 0 512 512" height="512" viewBox="0 0 512 512" width="512" xmlns="http://www.w3.org/2000/svg"><g><path d="m455.7 351.22-29.75-30.31c-4.16-4.23-6.45-9.83-6.45-15.76v-91.65c0-73.98-49.39-136.63-116.93-156.73.61-3.04.93-6.15.93-9.27 0-26.19-21.31-47.5-47.5-47.5s-47.5 21.31-47.5 47.5c0 3.15.31 6.25.9 9.28-67.52 20.11-116.9 82.75-116.9 156.72v91.65c0 5.93-2.29 11.53-6.45 15.76l-29.75 30.31c-16.52 16.82-21.12 40.78-11.99 62.53 9.12 21.74 29.44 35.25 53.02 35.25h317.34c23.58 0 43.9-13.51 53.02-35.25 9.13-21.75 4.53-45.71-11.99-62.53zm-211.84-300.77c-.22-.9-.36-1.87-.36-2.95 0-6.89 5.61-12.5 12.5-12.5s12.5 5.61 12.5 12.5c0 1.08-.14 2.05-.36 2.95-4.01-.29-8.06-.45-12.14-.45s-8.13.16-12.14.45z"/><path d="m256.37 512c29.15 0 52.9-23.1 53.95-52h-107.9c1.06 28.9 24.8 52 53.95 52z"/></g></svg>